<svg xmlns="http://www.w3.org/2000/svg" viewBox="93.64999755859375 81.33000183105469 387.6999969482422 439.36499977111816"><rect height="100%" width="100%" x="93.64999755859375" y="81.33000183105469" fill="rgba(32, 64, 81, 1)"/> <svg xmlns="http://www.w3.org/2000/svg" viewBox="0 -0.010000837035477161 26.43000030517578 36.01044464111328" height="185.98822021484375" width="136.50677685809495" y="151.3300018310547" x="231" preserveAspectRatio="xMinYMin" style="overflow: visible;"><path id="Layer_1-2" dataName="Layer 1" class="cls-1" d="M3.5,35.41H0v-17a4.8,4.8,0,0,1,4.79-4.79h6.5a4.8,4.8,0,0,1,4.79,4.79v3.8h-3.5v-3.8a1.29,1.29,0,0,0-1.29-1.29H4.79A1.29,1.29,0,0,0,3.5,18.42Z" style="fill: #FFFFFF; fill-opacity: 1;"></path><path id="Layer_1-2" dataName="Layer 1" class="cls-1" d="M8,12.11a6.06,6.06,0,1,1,6.06-6A6.06,6.06,0,0,1,8,12.11ZM8,3.5A2.56,2.56,0,1,0,10.6,6.06,2.56,2.56,0,0,0,8,3.5Z" style="fill: #FFFFFF; fill-opacity: 1;"></path><path id="Layer_1-2" dataName="Layer 1" class="cls-1" d="M11.07,36a5,5,0,0,1-1.42-.21,4.65,4.65,0,0,1-3.36-4.53V23h3.5v8.33A1.23,1.23,0,0,0,12,32L23.52,14.74l2.91,1.93L15,33.91A4.62,4.62,0,0,1,11.07,36Z" style="fill: #00bdaa; fill-opacity: 1;"></path></svg> <svg y="436.83499908447266" viewBox="1.690000057220459 5.559999942779541 247.6999969482422 13.860002517700195" x="163.64999755859375" height="13.860002517700195" width="247.6999969482422" style="overflow: visible;"><g fill="#FFFFFF" fill-opacity="1" style=""><path d="M11.82 6.39L11.82 19.24L9.72 19.24L9.72 13.44L3.80 13.44L3.80 19.24L1.69 19.24L1.69 6.39L3.80 6.39L3.80 11.65L9.72 11.65L9.72 6.39L11.82 6.39ZM17.21 6.39L20.83 6.39Q22.49 6.39 23.57 6.79Q24.66 7.20 25.19 8.02Q25.72 8.85 25.72 10.13L25.72 10.13Q25.72 11.07 25.37 11.74Q25.02 12.41 24.45 12.85Q23.88 13.29 23.23 13.55L23.23 13.55L26.87 19.24L24.49 19.24L21.39 14.09L19.32 14.09L19.32 19.24L17.21 19.24L17.21 6.39ZM20.69 8.15L20.69 8.15L19.32 8.15L19.32 12.35L20.78 12.35Q22.25 12.35 22.91 11.80Q23.58 11.26 23.58 10.20L23.58 10.20Q23.58 9.08 22.87 8.61Q22.16 8.15 20.69 8.15ZM41.84 8.18L41.84 19.24L39.72 19.24L39.72 8.18L35.96 8.18L35.96 6.39L45.59 6.39L45.59 8.18L41.84 8.18ZM57.96 14.35L57.96 14.35Q57.96 15.57 57.64 16.51Q57.32 17.45 56.72 18.09Q56.11 18.74 55.26 19.08Q54.41 19.42 53.33 19.42L53.33 19.42Q52.33 19.42 51.50 19.08Q50.66 18.74 50.05 18.09Q49.44 17.45 49.11 16.51Q48.77 15.57 48.77 14.35L48.77 14.35Q48.77 12.74 49.33 11.62Q49.89 10.50 50.93 9.91Q51.96 9.33 53.40 9.33L53.40 9.33Q54.74 9.33 55.77 9.91Q56.80 10.50 57.38 11.63Q57.96 12.75 57.96 14.35ZM50.90 14.35L50.90 14.35Q50.90 15.42 51.16 16.17Q51.42 16.93 51.96 17.33Q52.51 17.73 53.37 17.73L53.37 17.73Q54.23 17.73 54.78 17.33Q55.32 16.93 55.58 16.17Q55.83 15.42 55.83 14.35L55.83 14.35Q55.83 13.29 55.58 12.55Q55.32 11.80 54.78 11.41Q54.23 11.02 53.36 11.02L53.36 11.02Q52.08 11.02 51.49 11.88Q50.90 12.74 50.90 14.35ZM70.94 14.35L70.94 14.35Q70.94 15.57 70.63 16.51Q70.31 17.45 69.70 18.09Q69.10 18.74 68.25 19.08Q67.39 19.42 66.32 19.42L66.32 19.42Q65.32 19.42 64.48 19.08Q63.65 18.74 63.04 18.09Q62.43 17.45 62.09 16.51Q61.76 15.57 61.76 14.35L61.76 14.35Q61.76 12.74 62.32 11.62Q62.88 10.50 63.91 9.91Q64.95 9.33 66.38 9.33L66.38 9.33Q67.73 9.33 68.75 9.91Q69.78 10.50 70.36 11.63Q70.94 12.75 70.94 14.35ZM63.89 14.35L63.89 14.35Q63.89 15.42 64.15 16.17Q64.40 16.93 64.95 17.33Q65.49 17.73 66.36 17.73L66.36 17.73Q67.22 17.73 67.76 17.33Q68.31 16.93 68.56 16.17Q68.82 15.42 68.82 14.35L68.82 14.35Q68.82 13.29 68.56 12.55Q68.31 11.80 67.76 11.41Q67.22 11.02 66.35 11.02L66.35 11.02Q65.06 11.02 64.47 11.88Q63.89 12.74 63.89 14.35ZM77.39 5.56L77.39 19.24L75.32 19.24L75.32 5.56L77.39 5.56ZM88.87 16.46L88.87 16.46Q88.87 17.42 88.41 18.08Q87.94 18.74 87.05 19.08Q86.16 19.42 84.87 19.42L84.87 19.42Q83.85 19.42 83.11 19.27Q82.38 19.13 81.73 18.83L81.73 18.83L81.73 17.04Q82.42 17.37 83.29 17.60Q84.15 17.84 84.93 17.84L84.93 17.84Q85.95 17.84 86.40 17.52Q86.84 17.20 86.84 16.66L86.84 16.66Q86.84 16.35 86.66 16.10Q86.48 15.85 86.00 15.58Q85.51 15.31 84.57 14.93L84.57 14.93Q83.64 14.56 83.01 14.19Q82.38 13.83 82.05 13.30Q81.73 12.78 81.73 11.96L81.73 11.96Q81.73 10.67 82.75 10.00Q83.78 9.33 85.46 9.33L85.46 9.33Q86.36 9.33 87.16 9.51Q87.95 9.69 88.72 10.03L88.72 10.03L88.07 11.58Q87.41 11.29 86.74 11.10Q86.08 10.92 85.39 10.92L85.39 10.92Q84.59 10.92 84.18 11.16Q83.76 11.41 83.76 11.87L83.76 11.87Q83.76 12.21 83.96 12.45Q84.16 12.68 84.66 12.92Q85.16 13.16 86.04 13.51L86.04 13.51Q86.91 13.84 87.55 14.21Q88.19 14.57 88.53 15.10Q88.87 15.63 88.87 16.46ZM103.59 9.33L103.59 9.33Q105.43 9.33 106.38 10.14Q107.32 10.96 107.32 12.69L107.32 12.69L107.32 19.24L105.86 19.24L105.46 17.86L105.39 17.86Q104.98 18.39 104.54 18.73Q104.10 19.07 103.52 19.24Q102.95 19.42 102.12 19.42L102.12 19.42Q101.25 19.42 100.56 19.09Q99.88 18.77 99.48 18.11Q99.09 17.46 99.09 16.44L99.09 16.44Q99.09 14.94 100.21 14.19Q101.33 13.43 103.60 13.35L103.60 13.35L105.28 13.29L105.28 12.78Q105.28 11.77 104.81 11.34Q104.34 10.91 103.49 10.91L103.49 10.91Q102.76 10.91 102.08 11.12Q101.39 11.33 100.74 11.64L100.74 11.64L100.07 10.18Q100.78 9.80 101.69 9.56Q102.60 9.33 103.59 9.33ZM105.28 15.43L105.28 14.59L104.02 14.63Q102.47 14.69 101.85 15.16Q101.22 15.64 101.22 16.46L101.22 16.46Q101.22 17.18 101.65 17.51Q102.08 17.84 102.79 17.84L102.79 17.84Q103.86 17.84 104.57 17.23Q105.28 16.62 105.28 15.43L105.28 15.43ZM117.29 9.33L117.29 9.33Q118.93 9.33 119.85 10.17Q120.77 11.02 120.77 12.89L120.77 12.89L120.77 19.24L118.70 19.24L118.70 13.28Q118.70 12.15 118.24 11.58Q117.77 11.01 116.79 11.01L116.79 11.01Q115.38 11.01 114.83 11.88Q114.28 12.75 114.28 14.41L114.28 14.41L114.28 19.24L112.21 19.24L112.21 9.51L113.82 9.51L114.11 10.83L114.23 10.83Q114.54 10.32 115.01 9.99Q115.48 9.66 116.07 9.49Q116.65 9.33 117.29 9.33ZM128.92 19.42L128.92 19.42Q127.18 19.42 126.13 18.15Q125.08 16.88 125.08 14.40L125.08 14.40Q125.08 11.89 126.15 10.61Q127.21 9.33 128.96 9.33L128.96 9.33Q129.70 9.33 130.25 9.52Q130.81 9.72 131.21 10.05Q131.61 10.39 131.89 10.80L131.89 10.80L131.99 10.80Q131.94 10.53 131.89 10.02Q131.83 9.50 131.83 9.06L131.83 9.06L131.83 5.56L133.90 5.56L133.90 19.24L132.29 19.24L131.92 17.91L131.83 17.91Q131.56 18.33 131.16 18.67Q130.76 19.01 130.22 19.21Q129.67 19.42 128.92 19.42ZM129.50 17.74L129.50 17.74Q130.83 17.74 131.37 16.97Q131.92 16.21 131.93 14.68L131.93 14.68L131.93 14.41Q131.93 12.77 131.41 11.90Q130.88 11.02 129.48 11.02L129.48 11.02Q128.37 11.02 127.78 11.92Q127.20 12.82 127.20 14.43L127.20 14.43Q127.20 16.04 127.78 16.89Q128.37 17.74 129.50 17.74ZM155.95 19.24L153.71 19.24L152.45 15.67L147.54 15.67L146.28 19.24L144.05 19.24L148.84 6.34L151.17 6.34L155.95 19.24ZM148.12 13.86L151.90 13.86L150.68 10.34Q150.61 10.12 150.48 9.70Q150.35 9.28 150.22 8.85Q150.08 8.41 150.00 8.11L150.00 8.11Q149.91 8.47 149.78 8.92Q149.65 9.36 149.53 9.75Q149.42 10.13 149.35 10.34L149.35 10.34L148.12 13.86ZM165.97 16.46L165.97 16.46Q165.97 17.42 165.50 18.08Q165.04 18.74 164.15 19.08Q163.25 19.42 161.96 19.42L161.96 19.42Q160.94 19.42 160.21 19.27Q159.48 19.13 158.83 18.83L158.83 18.83L158.83 17.04Q159.52 17.37 160.39 17.60Q161.25 17.84 162.02 17.84L162.02 17.84Q163.04 17.84 163.49 17.52Q163.94 17.20 163.94 16.66L163.94 16.66Q163.94 16.35 163.76 16.10Q163.58 15.85 163.09 15.58Q162.60 15.31 161.66 14.93L161.66 14.93Q160.74 14.56 160.11 14.19Q159.48 13.83 159.15 13.30Q158.83 12.78 158.83 11.96L158.83 11.96Q158.83 10.67 159.85 10.00Q160.87 9.33 162.56 9.33L162.56 9.33Q163.46 9.33 164.25 9.51Q165.05 9.69 165.81 10.03L165.81 10.03L165.16 11.58Q164.50 11.29 163.84 11.10Q163.18 10.92 162.49 10.92L162.49 10.92Q161.69 10.92 161.27 11.16Q160.86 11.41 160.86 11.87L160.86 11.87Q160.86 12.21 161.06 12.45Q161.26 12.68 161.76 12.92Q162.25 13.16 163.14 13.51L163.14 13.51Q164.01 13.84 164.65 14.21Q165.29 14.57 165.63 15.10Q165.97 15.63 165.97 16.46ZM176.73 16.46L176.73 16.46Q176.73 17.42 176.27 18.08Q175.80 18.74 174.91 19.08Q174.02 19.42 172.73 19.42L172.73 19.42Q171.71 19.42 170.97 19.27Q170.24 19.13 169.59 18.83L169.59 18.83L169.59 17.04Q170.28 17.37 171.15 17.60Q172.01 17.84 172.79 17.84L172.79 17.84Q173.81 17.84 174.25 17.52Q174.70 17.20 174.70 16.66L174.70 16.66Q174.70 16.35 174.52 16.10Q174.34 15.85 173.85 15.58Q173.37 15.31 172.43 14.93L172.43 14.93Q171.50 14.56 170.87 14.19Q170.24 13.83 169.91 13.30Q169.59 12.78 169.59 11.96L169.59 11.96Q169.59 10.67 170.61 10.00Q171.64 9.33 173.32 9.33L173.32 9.33Q174.22 9.33 175.02 9.51Q175.81 9.69 176.58 10.03L176.58 10.03L175.92 11.58Q175.27 11.29 174.60 11.10Q173.94 10.92 173.25 10.92L173.25 10.92Q172.45 10.92 172.04 11.16Q171.62 11.41 171.62 11.87L171.62 11.87Q171.62 12.21 171.82 12.45Q172.02 12.68 172.52 12.92Q173.02 13.16 173.90 13.51L173.90 13.51Q174.77 13.84 175.41 14.21Q176.05 14.57 176.39 15.10Q176.73 15.63 176.73 16.46ZM180.96 9.51L183.02 9.51L183.02 19.24L180.96 19.24L180.96 9.51ZM182.00 5.78L182.00 5.78Q182.48 5.78 182.82 6.04Q183.17 6.29 183.17 6.92L183.17 6.92Q183.17 7.53 182.82 7.79Q182.48 8.05 182.00 8.05L182.00 8.05Q181.51 8.05 181.17 7.79Q180.83 7.53 180.83 6.92L180.83 6.92Q180.83 6.29 181.17 6.04Q181.51 5.78 182.00 5.78ZM194.51 16.46L194.51 16.46Q194.51 17.42 194.05 18.08Q193.58 18.74 192.69 19.08Q191.80 19.42 190.51 19.42L190.51 19.42Q189.49 19.42 188.75 19.27Q188.02 19.13 187.37 18.83L187.37 18.83L187.37 17.04Q188.06 17.37 188.93 17.60Q189.79 17.84 190.57 17.84L190.57 17.84Q191.59 17.84 192.04 17.52Q192.48 17.20 192.48 16.66L192.48 16.66Q192.48 16.35 192.30 16.10Q192.12 15.85 191.64 15.58Q191.15 15.31 190.21 14.93L190.21 14.93Q189.29 14.56 188.65 14.19Q188.02 13.83 187.69 13.30Q187.37 12.78 187.37 11.96L187.37 11.96Q187.37 10.67 188.39 10.00Q189.42 9.33 191.10 9.33L191.10 9.33Q192.00 9.33 192.80 9.51Q193.59 9.69 194.36 10.03L194.36 10.03L193.71 11.58Q193.05 11.29 192.38 11.10Q191.72 10.92 191.03 10.92L191.03 10.92Q190.23 10.92 189.82 11.16Q189.40 11.41 189.40 11.87L189.40 11.87Q189.40 12.21 189.60 12.45Q189.80 12.68 190.30 12.92Q190.80 13.16 191.68 13.51L191.68 13.51Q192.55 13.84 193.19 14.21Q193.83 14.57 194.17 15.10Q194.51 15.63 194.51 16.46ZM202.36 17.75L202.36 17.75Q202.76 17.75 203.16 17.67Q203.55 17.60 203.88 17.49L203.88 17.49L203.88 19.05Q203.54 19.20 202.99 19.31Q202.45 19.42 201.86 19.42L201.86 19.42Q201.03 19.42 200.37 19.14Q199.71 18.86 199.33 18.18Q198.94 17.51 198.94 16.31L198.94 16.31L198.94 11.08L197.61 11.08L197.61 10.16L199.04 9.43L199.71 7.35L201.01 7.35L201.01 9.51L203.80 9.51L203.80 11.08L201.01 11.08L201.01 16.29Q201.01 17.02 201.38 17.38Q201.75 17.75 202.36 17.75ZM211.67 9.33L211.67 9.33Q213.52 9.33 214.46 10.14Q215.41 10.96 215.41 12.69L215.41 12.69L215.41 19.24L213.94 19.24L213.54 17.86L213.47 17.86Q213.06 18.39 212.62 18.73Q212.18 19.07 211.61 19.24Q211.03 19.42 210.20 19.42L210.20 19.42Q209.33 19.42 208.65 19.09Q207.96 18.77 207.57 18.11Q207.17 17.46 207.17 16.44L207.17 16.44Q207.17 14.94 208.29 14.19Q209.41 13.43 211.68 13.35L211.68 13.35L213.37 13.29L213.37 12.78Q213.37 11.77 212.90 11.34Q212.43 10.91 211.58 10.91L211.58 10.91Q210.85 10.91 210.16 11.12Q209.47 11.33 208.82 11.64L208.82 11.64L208.16 10.18Q208.87 9.80 209.78 9.56Q210.69 9.33 211.67 9.33ZM213.36 15.43L213.36 14.59L212.10 14.63Q210.56 14.69 209.93 15.16Q209.31 15.64 209.31 16.46L209.31 16.46Q209.31 17.18 209.74 17.51Q210.17 17.84 210.87 17.84L210.87 17.84Q211.94 17.84 212.65 17.23Q213.36 16.62 213.36 15.43L213.36 15.43ZM225.37 9.33L225.37 9.33Q227.01 9.33 227.93 10.17Q228.85 11.02 228.85 12.89L228.85 12.89L228.85 19.24L226.79 19.24L226.79 13.28Q226.79 12.15 226.32 11.58Q225.85 11.01 224.88 11.01L224.88 11.01Q223.46 11.01 222.91 11.88Q222.36 12.75 222.36 14.41L222.36 14.41L222.36 19.24L220.30 19.24L220.30 9.51L221.91 9.51L222.20 10.83L222.31 10.83Q222.63 10.32 223.10 9.99Q223.57 9.66 224.15 9.49Q224.74 9.33 225.37 9.33ZM237.35 17.75L237.35 17.75Q237.76 17.75 238.15 17.67Q238.55 17.60 238.88 17.49L238.88 17.49L238.88 19.05Q238.53 19.20 237.99 19.31Q237.44 19.42 236.85 19.42L236.85 19.42Q236.03 19.42 235.37 19.14Q234.71 18.86 234.32 18.18Q233.94 17.51 233.94 16.31L233.94 16.31L233.94 11.08L232.61 11.08L232.61 10.16L234.03 9.43L234.71 7.35L236.01 7.35L236.01 9.51L238.80 9.51L238.80 11.08L236.01 11.08L236.01 16.29Q236.01 17.02 236.38 17.38Q236.75 17.75 237.35 17.75ZM249.39 16.46L249.39 16.46Q249.39 17.42 248.93 18.08Q248.46 18.74 247.57 19.08Q246.68 19.42 245.38 19.42L245.38 19.42Q244.36 19.42 243.63 19.27Q242.90 19.13 242.25 18.83L242.25 18.83L242.25 17.04Q242.94 17.37 243.81 17.60Q244.67 17.84 245.45 17.84L245.45 17.84Q246.46 17.84 246.91 17.52Q247.36 17.20 247.36 16.66L247.36 16.66Q247.36 16.35 247.18 16.10Q247.00 15.85 246.51 15.58Q246.03 15.31 245.08 14.93L245.08 14.93Q244.16 14.56 243.53 14.19Q242.90 13.83 242.57 13.30Q242.25 12.78 242.25 11.96L242.25 11.96Q242.25 10.67 243.27 10.00Q244.29 9.33 245.98 9.33L245.98 9.33Q246.88 9.33 247.67 9.51Q248.47 9.69 249.23 10.03L249.23 10.03L248.58 11.58Q247.92 11.29 247.26 11.10Q246.60 10.92 245.91 10.92L245.91 10.92Q245.11 10.92 244.69 11.16Q244.28 11.41 244.28 11.87L244.28 11.87Q244.28 12.21 244.48 12.45Q244.68 12.68 245.18 12.92Q245.67 13.16 246.56 13.51L246.56 13.51Q247.43 13.84 248.07 14.21Q248.71 14.57 249.05 15.10Q249.39 15.63 249.39 16.46Z" transform="translate(0, 0)"></path></g></svg> <svg y="363.16500091552734" viewBox="5.789999961853027 0.8500000238418579 151.40000915527344 45.630001068115234" x="211.79999786376953" height="45.630001068115234" width="151.40000915527344" style="overflow: visible;"><g fill="#FFFFFF" fill-opacity="1" style=""><path d="M34.71 0.85L43.55 0.85L43.55 45.75L34.71 45.75L34.71 27.51L14.64 27.51L14.64 45.75L5.79 45.75L5.79 0.85L14.64 0.85L14.64 18.97L34.71 18.97L34.71 0.85ZM64.86 46.48L64.86 46.48Q59.98 46.48 56.59 44.65Q53.20 42.82 51.44 39.59Q49.67 36.36 49.67 32.15L49.67 32.15Q49.67 28.12 51.74 24.89Q53.81 21.66 57.29 19.73Q60.77 17.81 65.04 17.81L65.04 17.81Q70.77 17.81 74.46 21.14Q78.15 24.46 79.25 30.74L79.25 30.74L58.51 37.33L56.62 32.70L71.63 27.63L69.86 28.43Q69.37 26.84 68.12 25.65Q66.87 24.46 64.37 24.46L64.37 24.46Q62.48 24.46 61.04 25.35Q59.61 26.23 58.85 27.85Q58.08 29.46 58.08 31.66L58.08 31.66Q58.08 34.16 59 35.84Q59.91 37.52 61.50 38.37Q63.09 39.22 65.04 39.22L65.04 39.22Q66.44 39.22 67.75 38.73Q69.06 38.25 70.35 37.45L70.35 37.45L74.13 43.80Q71.99 45.02 69.52 45.75Q67.05 46.48 64.86 46.48ZM83.47 19.09L91.16 19.09L91.95 26.41L91.77 25.32Q92.93 22.94 94.94 21.26Q96.95 19.58 98.94 18.67Q100.92 17.75 101.96 17.75L101.96 17.75L101.53 26.29Q98.54 25.93 96.41 27.27Q94.27 28.61 93.11 30.80Q91.95 33.00 91.95 35.32L91.95 35.32L91.95 45.75L83.47 45.75L83.47 19.09ZM108.98 18.97L108.98 7.38L117.52 7.38L117.52 18.97L123.99 18.97L123.99 25.62L117.52 25.62L117.52 45.75L108.98 45.75L108.98 25.62L104.84 25.62L104.84 18.97L108.98 18.97ZM139.74 46.48L139.74 46.48Q136.02 46.48 133.00 44.99Q129.98 43.49 128.21 40.38Q126.44 37.27 126.44 32.45L126.44 32.45Q126.44 27.94 128.27 24.64Q130.10 21.35 133.09 19.55Q136.08 17.75 139.44 17.75L139.44 17.75Q143.40 17.75 145.45 19.06Q147.49 20.37 148.83 21.96L148.83 21.96L148.46 23.00L149.26 19.09L157.19 19.09L157.19 45.75L148.65 45.75L148.65 39.95L149.32 41.78Q149.20 41.78 148.59 42.49Q147.98 43.19 146.79 44.13Q145.60 45.08 143.86 45.78Q142.12 46.48 139.74 46.48ZM142.18 39.53L142.18 39.53Q143.71 39.53 144.93 39.07Q146.15 38.61 147.06 37.73Q147.98 36.84 148.65 35.50L148.65 35.50L148.65 28.98Q148.16 27.63 147.18 26.69Q146.21 25.74 144.87 25.22Q143.52 24.71 141.88 24.71L141.88 24.71Q140.05 24.71 138.49 25.65Q136.94 26.60 136.02 28.24Q135.11 29.89 135.11 32.02L135.11 32.02Q135.11 34.16 136.08 35.87Q137.06 37.58 138.67 38.55Q140.29 39.53 142.18 39.53Z" transform="translate(0, 0)"></path></g></svg></svg>